PathFileType	4	(X/Y/Z)	D:\TRACE\spot_10-12-23\spot_body_motion_2_3-v60.trc
DataRate	CameraRate	NumFrames	NumMarkers	Units	OrigDataRate	OrigDataStartFrame	OrigNumFrames
100.00	100.00	      14	9	mm	100.00	3501	      7000
Frame#	Time	front left toe			Front right toe			aft left toe			aft right toe			Arm			FL body			FR body			AL Body			AR Body			
		X1	Y1	Z1	X2	Y2	Z2	X3	Y3	Z3	X4	Y4	Z4	X5	Y5	Z5	X6	Y6	Z6	X7	Y7	Z7	X8	Y8	Z8	X9	Y9	Z9	

3501	35.000	-57.83421	27.68595	9.14078	463.18991	17.80097	103.20815	-163.99397	-7.80408	444.22522	318.12256	-24.70584	553.93872	268.86688	796.12231	-120.93404	180.17340	534.01776	-121.77247	329.84113	538.12384	-87.84430	-11.86102	541.23254	741.51099	134.28276	539.72046	775.75653	
3502	35.010	-55.88282	34.02939	11.86860	464.70416	19.81926	103.64769	-164.05066	-8.74133	444.04150	317.93344	-24.88578	554.59790	268.91238	796.22644	-119.56009	181.28284	533.68341	-120.56326	330.20810	539.00415	-88.09475	-10.96994	539.80469	742.73602	134.83525	538.50525	776.84637	
3503	35.020	-54.30825	44.78234	16.46080	464.45404	19.28802	104.00316	-164.09518	-9.21297	444.57574	317.58368	-25.60702	554.94550	269.13617	796.13025	-118.15240	182.47060	533.09888	-119.35994	331.28680	538.85767	-86.88130	-10.83210	538.75287	743.40314	135.40561	537.40460	778.00952	
3504	35.030	-54.77551	55.93631	19.57281	464.20584	19.00884	104.27338	-164.15234	-9.58358	444.66449	316.80536	-26.64821	554.82477	269.20123	795.75739	-117.15897	183.07370	532.70166	-118.50780	332.21994	538.74390	-85.91161	-9.80236	537.16553	744.79718	136.57054	536.36395	779.11652	
3505	35.040	-57.00678	67.57864	17.92347	464.07312	18.56580	104.58777	-164.33763	-9.78165	445.11288	316.53427	-26.99794	555.32947	269.99060	795.16644	-115.70129	183.76537	532.41479	-117.27817	333.10074	538.15015	-84.48935	-8.47947	536.12518	745.96039	137.54213	535.43243	779.96295	
3506	35.050	-58.46102	79.07729	13.29064	463.40680	18.87288	104.85223	-164.39655	-10.02475	445.39896	317.17471	-28.03526	555.22327	270.34683	794.82446	-114.75928	184.13773	532.28137	-116.34202	333.16504	537.91113	-83.62881	-8.30206	535.60992	747.01440	138.84760	534.59186	781.33832	
3507	35.060	-59.38726	90.32545	8.09016	462.97189	18.88382	104.94205	-164.46693	-10.28137	445.61322	317.12701	-29.04879	555.83368	270.98215	794.88751	-113.24946	184.79364	531.85101	-114.71638	333.95813	537.77893	-82.70161	-6.99155	534.29279	748.33478	140.09013	533.20660	782.44690	
3508	35.070	-58.11957	100.88037	4.92401	463.47104	19.17380	104.86595	-164.67720	-10.63913	445.73502	316.89880	-29.13225	555.39685	271.77222	794.82031	-111.82243	184.84157	532.35620	-114.19358	334.09015	538.00427	-81.90754	-5.61398	532.88849	749.81635	141.22191	531.62494	783.71289	
3509	35.080	-57.85038	109.78247	4.41267	462.82724	18.06022	104.90127	-165.10213	-11.14626	445.93634	316.45584	-29.71585	555.84705	272.03668	794.91815	-110.54863	185.76314	532.02600	-112.73199	334.82675	538.06610	-80.94162	-4.87372	531.50745	750.54529	141.75951	530.45520	784.71814	
3510	35.090	-58.74562	118.18263	4.71838	460.97336	16.52566	105.01018	-165.50772	-11.40250	446.02417	315.16602	-30.35786	556.01160	272.44070	795.07166	-109.14606	186.09758	532.43469	-112.22348	335.16727	537.89050	-79.94820	-4.48061	530.36212	751.44019	142.33975	529.32025	785.68103	
3511	35.100	-60.60777	125.05946	4.44172	460.73422	16.44874	105.23025	-165.91039	-11.64592	446.12646	314.69043	-30.81470	556.13275	273.08868	795.12805	-107.67016	187.17612	532.37079	-111.04947	336.47821	537.60907	-78.66058	-4.12562	529.16327	753.12878	143.04391	528.22858	786.92780	
3512	35.110	-63.73307	130.37050	2.63532	460.35229	16.43101	105.33287	-166.28311	-11.78097	446.34753	314.39743	-31.23707	556.13007	273.71487	795.25153	-106.48656	187.36087	532.49567	-110.24954	336.33191	537.71753	-78.01901	-3.15394	528.20007	753.66156	143.81107	527.16357	787.80988	
3513	35.120	-65.89184	133.72090	-0.07929	459.72424	16.28066	105.37189	-166.68173	-11.99083	446.58890	314.87637	-31.72847	556.25415	274.66965	795.26202	-105.08235	187.93192	532.45270	-109.07575	336.77704	537.73590	-76.93448	-2.62501	527.39636	754.41052	145.04042	526.29401	789.15149	
3514	35.130	-66.93855	135.33643	-2.80316	458.81177	16.05604	105.44788	-166.95972	-12.16838	446.74850	314.50809	-32.11312	556.42279	275.71609	795.36871	-103.72940	188.25948	532.65137	-108.12074	337.00134	537.86792	-76.21813	-2.19416	526.43213	756.37848	144.56570	524.89355	789.14429	
